<svg width="176" height="75" viewBox="0 0 176 75" fill="none" xmlns="http://www.w3.org/2000/svg">
    <path d="M22.75 55L8.4 39.1V55H3.85V20.15H8.4V36.3L22.8 20.15H28.55L12.75 37.6L28.7 55H22.75ZM32.0816 41.2C32.0816 38.4 32.6483 35.95 33.7816 33.85C34.915 31.7167 36.465 30.0667 38.4316 28.9C40.4316 27.7333 42.6483 27.15 45.0816 27.15C47.4816 27.15 49.565 27.6667 51.3316 28.7C53.0983 29.7333 54.415 31.0333 55.2816 32.6V27.6H59.8816V55H55.2816V49.9C54.3816 51.5 53.0316 52.8333 51.2316 53.9C49.465 54.9333 47.3983 55.45 45.0316 55.45C42.5983 55.45 40.3983 54.85 38.4316 53.65C36.465 52.45 34.915 50.7667 33.7816 48.6C32.6483 46.4333 32.0816 43.9667 32.0816 41.2ZM55.2816 41.25C55.2816 39.1833 54.865 37.3833 54.0316 35.85C53.1983 34.3167 52.065 33.15 50.6316 32.35C49.2316 31.5167 47.6816 31.1 45.9816 31.1C44.2816 31.1 42.7316 31.5 41.3316 32.3C39.9316 33.1 38.815 34.2667 37.9816 35.8C37.1483 37.3333 36.7316 39.1333 36.7316 41.2C36.7316 43.3 37.1483 45.1333 37.9816 46.7C38.815 48.2333 39.9316 49.4167 41.3316 50.25C42.7316 51.05 44.2816 51.45 45.9816 51.45C47.6816 51.45 49.2316 51.05 50.6316 50.25C52.065 49.4167 53.1983 48.2333 54.0316 46.7C54.865 45.1333 55.2816 43.3167 55.2816 41.25ZM80.9207 27.1C84.254 27.1 86.954 28.1167 89.0207 30.15C91.0874 32.15 92.1207 35.05 92.1207 38.85V55H87.6207V39.5C87.6207 36.7667 86.9374 34.6833 85.5707 33.25C84.204 31.7833 82.3374 31.05 79.9707 31.05C77.5707 31.05 75.654 31.8 74.2207 33.3C72.8207 34.8 72.1207 36.9833 72.1207 39.85V55H67.5707V27.6H72.1207V31.5C73.0207 30.1 74.2374 29.0167 75.7707 28.25C77.3374 27.4833 79.054 27.1 80.9207 27.1ZM97.8531 41.2C97.8531 38.4 98.4198 35.95 99.5531 33.85C100.686 31.7167 102.236 30.0667 104.203 28.9C106.203 27.7333 108.436 27.15 110.903 27.15C113.036 27.15 115.02 27.65 116.853 28.65C118.686 29.6167 120.086 30.9 121.053 32.5V18H125.653V55H121.053V49.85C120.153 51.4833 118.82 52.8333 117.053 53.9C115.286 54.9333 113.22 55.45 110.853 55.45C108.42 55.45 106.203 54.85 104.203 53.65C102.236 52.45 100.686 50.7667 99.5531 48.6C98.4198 46.4333 97.8531 43.9667 97.8531 41.2ZM121.053 41.25C121.053 39.1833 120.636 37.3833 119.803 35.85C118.97 34.3167 117.836 33.15 116.403 32.35C115.003 31.5167 113.453 31.1 111.753 31.1C110.053 31.1 108.503 31.5 107.103 32.3C105.703 33.1 104.586 34.2667 103.753 35.8C102.92 37.3333 102.503 39.1333 102.503 41.2C102.503 43.3 102.92 45.1333 103.753 46.7C104.586 48.2333 105.703 49.4167 107.103 50.25C108.503 51.05 110.053 51.45 111.753 51.45C113.453 51.45 115.003 51.05 116.403 50.25C117.836 49.4167 118.97 48.2333 119.803 46.7C120.636 45.1333 121.053 43.3167 121.053 41.25ZM135.692 23.15C134.826 23.15 134.092 22.85 133.492 22.25C132.892 21.65 132.592 20.9167 132.592 20.05C132.592 19.1833 132.892 18.45 133.492 17.85C134.092 17.25 134.826 16.95 135.692 16.95C136.526 16.95 137.226 17.25 137.792 17.85C138.392 18.45 138.692 19.1833 138.692 20.05C138.692 20.9167 138.392 21.65 137.792 22.25C137.226 22.85 136.526 23.15 135.692 23.15ZM137.892 27.6V55H133.342V27.6H137.892ZM143.947 41.2C143.947 38.4 144.514 35.95 145.647 33.85C146.78 31.7167 148.33 30.0667 150.297 28.9C152.297 27.7333 154.53 27.15 156.997 27.15C159.13 27.15 161.114 27.65 162.947 28.65C164.78 29.6167 166.18 30.9 167.147 32.5V18H171.747V55H167.147V49.85C166.247 51.4833 164.914 52.8333 163.147 53.9C161.38 54.9333 159.314 55.45 156.947 55.45C154.514 55.45 152.297 54.85 150.297 53.65C148.33 52.45 146.78 50.7667 145.647 48.6C144.514 46.4333 143.947 43.9667 143.947 41.2ZM167.147 41.25C167.147 39.1833 166.73 37.3833 165.897 35.85C165.064 34.3167 163.93 33.15 162.497 32.35C161.097 31.5167 159.547 31.1 157.847 31.1C156.147 31.1 154.597 31.5 153.197 32.3C151.797 33.1 150.68 34.2667 149.847 35.8C149.014 37.3333 148.597 39.1333 148.597 41.2C148.597 43.3 149.014 45.1333 149.847 46.7C150.68 48.2333 151.797 49.4167 153.197 50.25C154.597 51.05 156.147 51.45 157.847 51.45C159.547 51.45 161.097 51.05 162.497 50.25C163.93 49.4167 165.064 48.2333 165.897 46.7C166.73 45.1333 167.147 43.3167 167.147 41.25Z" fill="#333333"/>
</svg>